<?xml version="1.0" encoding="utf-8"?>
<!-- Generator: Adobe Illustrator 19.1.0, SVG Export Plug-In . SVG Version: 6.00 Build 0)  -->
<svg version="1.1" xmlns="http://www.w3.org/2000/svg" xmlns:xlink="http://www.w3.org/1999/xlink" x="0px" y="0px"
	 viewBox="0 0 198.5 198.4" style="enable-background:new 0 0 198.5 198.4;" xml:space="preserve">
<style type="text/css">
	.st0{display:none;}
	.st1{display:inline;}
	.st2{fill:none;stroke:#D51224;stroke-width:4;stroke-miterlimit:10;}
	.st3{display:inline;fill:none;stroke:#D51224;stroke-width:4;stroke-miterlimit:10;}
</style>
<g id="Ebene_1" class="st0">
	<g class="st1">
		<path class="st2" d="M15.9,2.7h40.5c3,0,5.8,1.1,8.1,3l26.3,22.4c2.3,1.9,5.1,3,8.1,3h101.2c6.9,0,12.5,5.6,12.5,12.5v139
			c0,6.9-5.6,12.5-12.5,12.5H15.9c-6.9,0-12.5-5.6-12.5-12.5V15.2C3.4,8.3,9,2.7,15.9,2.7z M2.4,31H142"/>
	</g>
</g>
<g id="Ebene_2" class="st0">
	<circle class="st3" cx="98.8" cy="99.5" r="96.6"/>
	<g class="st1">
		<path class="st2" d="M107.5,54.3c0.2,4.8-3.4,8.6-9,8.6c-5,0-8.5-3.8-8.5-8.6c0-5,3.7-8.8,8.8-8.8
			C104.2,45.5,107.5,49.3,107.5,54.3z M91.9,153.6V76.1h14.1v77.5H91.9z"/>
	</g>
</g>
<g id="Ebene_3">
	<circle class="st2" cx="99.4" cy="100" r="41.9"/>
	<path class="st2" d="M196.5,113.7V87.1l-24.1-5.7c-1.8-7.1-4.6-13.8-8.2-19.9l13.2-20.7L158.6,22L137.5,35
		c-5.9-3.5-12.3-6.2-19.1-7.9L113.1,3L86.5,3l-5.7,24.1c-7,1.8-13.7,4.5-19.8,8.1L40.4,22L21.6,40.8l13,21c-3.5,5.9-6.2,12.4-8,19.2
		L2.4,86.3l0,26.6l24.1,5.7c1.7,6.7,4.3,13,7.6,18.8l-13.2,20.7l18.8,18.8l20.5-12.7c6.3,3.9,13.2,6.8,20.6,8.7l5.1,23h26.6
		l5.4-22.9c7.1-1.8,13.9-4.6,20.1-8.2l20.1,12.8l18.8-18.8l-12.5-20.3c3.6-6,6.4-12.6,8.2-19.5L196.5,113.7z"/>
	<g>
	</g>
	<g>
	</g>
	<g>
	</g>
	<g>
	</g>
	<g>
	</g>
	<g>
	</g>
</g>
</svg>
