<?xml version="1.0" encoding="utf-8"?>
<!-- Generator: Adobe Illustrator 19.1.0, SVG Export Plug-In . SVG Version: 6.00 Build 0)  -->
<svg version="1.1" id="Ebene_1" xmlns="http://www.w3.org/2000/svg" xmlns:xlink="http://www.w3.org/1999/xlink" x="0px" y="0px"
	 viewBox="0 0 358.5 139.4" style="enable-background:new 0 0 358.5 139.4;" xml:space="preserve">
<style type="text/css">
	.st0{fill:#D51224;}
	.st1{fill:#FFFFFF;}
</style>
<path class="st0" d="M72.7,102.5H18.1C8.1,102.5,0,94.4,0,84.4V18.1C0,8.1,8.1,0,18.1,0h69.2c1.9,0,3.5,1.6,3.5,3.5v80.9
	C90.7,94.4,82.6,102.5,72.7,102.5z"/>
<path d="M324.7,89.4H300c-1.3,0-1.9-0.6-1.9-1.9v-4.9c0-1.2,0.6-1.8,1.9-1.8h23.3c7.2,0,10.8-2.7,10.8-8v-2.6
	c0-4.9-2.4-8.3-7.1-10.1l-16.4-6.9c-4.7-1.9-8.1-4.2-10.1-6.9c-2-2.6-3-6.1-3-10.5c0-11.4,6.2-17,18.7-17H339c1.3,0,1.9,0.6,1.9,1.9
	v4.9c0,1.2-0.6,1.8-1.9,1.8H318c-3.3,0-5.8,0.7-7.6,2.1c-1.7,1.4-2.6,3-2.6,4.9v2.4c0,3.9,2.6,6.8,7.9,8.9l16.4,7.3
	c4.8,1.8,8.1,4.3,9.8,7.3c1.7,3,2.6,7.3,2.6,12.6C344.5,83.9,337.9,89.4,324.7,89.4z"/>
<path d="M121.1,27.4h28.3c1.3,0,1.9-0.6,1.9-1.9v-5c0-1.2-0.6-1.8-1.9-1.8H120c-6.4,0-11.4,1.8-15,5.4c-3.7,3.6-5.5,8.6-5.5,15.1V54
	v0v14.9c0,6.5,1.8,11.5,5.5,15.1c3.6,3.6,8.7,5.4,15,5.4h29.4c1.3,0,1.9-0.6,1.9-1.8v-5c0-1.3-0.6-1.9-1.9-1.9h-28.3
	c-7.8,0-11.6-4-11.6-12.1v-8.5c0-0.8,0.5-1.2,1.4-1.2h31.9h0.5h5.9c1.3,0,1.9-0.7,1.9-2.1v-2.8v0v-2.8c0-1.4-0.6-2.1-1.9-2.1h-5.9
	h-0.5h-31.9c-0.9,0-1.4-0.4-1.4-1.2v-8.5C109.5,31.4,113.4,27.4,121.1,27.4z"/>
<g>
	<path d="M196.8,53.1v-0.6L217.2,21c0.5-0.6,0.6-1.2,0.3-1.6c-0.2-0.4-0.7-0.6-1.5-0.6h-6.9c-1.7,0-2.8,0.6-3.3,1.8l-19.7,31
		c-0.6,1-0.6,2,0,2.9l21.3,33c0.8,1.3,2.1,1.9,3.9,1.9h6.5c0.7,0,1.2-0.2,1.5-0.6c0.3-0.4,0.2-0.9-0.1-1.6L196.8,53.1z"/>
	<path d="M177.3,18.8H171c-1.3,0-1.9,0.6-1.9,1.9v24.2V46v41.4c0,1.3,0.6,1.9,1.9,1.9h6.2c1.3,0,1.9-0.6,1.9-1.9V46v-1.2V20.7
		C179.2,19.4,178.6,18.8,177.3,18.8z"/>
</g>
<path d="M279.7,18.7h-30.1c-6.4,0-11.4,1.8-15,5.4c-3.7,3.6-5.5,8.6-5.5,15.1v13.8h0v34.4c0,1.3,0.6,1.9,1.9,1.9h6.2
	c1.3,0,1.9-0.6,1.9-1.9V58.9h32.3v8.9c0,0.2,0,0.3,0,0.4v13.8h0v5.4c0,1.3,0.6,1.9,1.9,1.9h6.2c1.3,0,1.9-0.6,1.9-1.9V20.7
	C281.6,19.4,281,18.7,279.7,18.7z M239.2,49.1v-9.4c0-8,3.8-12.1,11.5-12.1h19.4c0.9,0,1.4,0.4,1.4,1.2v20.3H239.2z"/>
<g>
	<path class="st0" d="M127.3,109.6c0,0.1,0,0.3,0,0.4c0,0.2-0.1,0.4-0.1,0.5c-0.1,0.2-0.1,0.4-0.2,0.5c-0.1,0.2-0.2,0.3-0.3,0.4h0
		c-0.3,0.3-0.9,0.5-2,0.5c0-0.4,0-0.7,0-1c0-0.3-0.1-0.5-0.2-0.7c-0.1-0.1-0.2-0.3-0.3-0.4s-0.3-0.2-0.5-0.2
		c-0.2-0.1-0.4-0.1-0.6-0.1c-0.2,0-0.4,0-0.5,0c-0.4,0-0.7,0-1.1,0s-0.7,0.1-1.1,0.1c-0.3,0.1-0.7,0.1-1.1,0.2
		c-0.4,0.1-0.7,0.2-1.1,0.4c-0.3,0.1-0.5,0.2-0.8,0.4c-0.3,0.2-0.6,0.3-0.8,0.5c-0.3,0.2-0.5,0.4-0.7,0.6c-0.2,0.2-0.3,0.5-0.3,0.7
		l0,0c0,0.2,0.1,0.4,0.2,0.7c0.1,0.3,0.3,0.5,0.6,0.8c0.2,0.3,0.5,0.5,0.8,0.7c0.3,0.2,0.7,0.4,1,0.5c0,0,0.1,0,0.2,0.1
		c0.1,0,0.3,0.1,0.4,0.2c0.2,0.1,0.4,0.1,0.6,0.2c0.2,0.1,0.4,0.1,0.6,0.2c0.2,0.1,0.3,0.1,0.4,0.1c0.1,0,0.2,0.1,0.2,0.1
		c2,0.5,3.6,1.1,4.5,1.9s1.5,1.6,1.5,2.7c0,0.3-0.1,0.7-0.2,1c-0.1,0.3-0.3,0.7-0.6,1s-0.5,0.6-0.7,0.8c-0.3,0.3-0.5,0.5-0.8,0.7
		l0,0c-0.3,0.2-0.5,0.4-0.9,0.6c-0.3,0.2-0.7,0.4-1,0.6s-0.8,0.4-1.1,0.6c-0.4,0.2-0.8,0.3-1.2,0.5c-0.4,0.1-0.8,0.2-1.2,0.3
		c-0.4,0.1-0.9,0.2-1.3,0.3s-0.8,0.1-1.2,0.2c-0.4,0-0.7,0.1-1.1,0.1c-0.2,0-0.4,0-0.6-0.1c-0.2,0-0.5-0.1-0.8-0.2
		c-0.3-0.1-0.5-0.2-0.8-0.3c-0.3-0.1-0.5-0.2-0.7-0.3s-0.4-0.3-0.5-0.4c-0.1-0.1-0.2-0.3-0.2-0.4c0-0.1,0-0.3,0.1-0.5
		s0.1-0.4,0.2-0.6c0.1-0.2,0.2-0.4,0.4-0.5c0.1-0.1,0.3-0.2,0.4-0.2c0.2,0,0.4,0,0.6,0.1s0.4,0.1,0.7,0.2c0.2,0.1,0.5,0.1,0.8,0.2
		c0.3,0.1,0.7,0.1,1.2,0.1s1-0.1,1.5-0.2c0.5-0.1,1-0.2,1.5-0.4c0.5-0.2,1-0.4,1.4-0.6s0.9-0.4,1.2-0.7c0.2-0.1,0.3-0.2,0.5-0.4
		c0.2-0.1,0.4-0.3,0.5-0.4c0.2-0.2,0.3-0.3,0.4-0.5c0.1-0.2,0.2-0.4,0.2-0.5c0-0.2-0.2-0.4-0.5-0.6v0c-0.5-0.3-0.9-0.5-1.4-0.6
		s-0.9-0.3-1.2-0.4c-1-0.2-2.1-0.6-3.5-1.2h0c-0.6-0.2-1.1-0.5-1.7-0.9s-1-0.7-1.4-1.1c-0.9-1-1.3-2.1-1.3-3.4c0-0.5,0.1-1,0.4-1.5
		s0.7-0.9,1.1-1.3c0.5-0.4,1-0.8,1.7-1.2c0.6-0.4,1.3-0.7,2-0.9c0.7-0.3,1.5-0.4,2.2-0.6c0.8-0.1,1.5-0.2,2.2-0.2c0.2,0,0.5,0,0.8,0
		c0.3,0,0.7,0.1,1,0.1c0.3,0.1,0.7,0.1,1,0.2c0.3,0.1,0.6,0.2,0.8,0.3h0c0.5,0.3,0.9,0.6,1.2,1C127.1,108.9,127.3,109.3,127.3,109.6
		z"/>
	<path class="st0" d="M146.1,114.6c0,0.2,0,0.3-0.1,0.5c-0.1,0.1-0.2,0.3-0.3,0.4c-0.1,0.1-0.2,0.2-0.3,0.3
		c-0.1,0.1-0.2,0.2-0.4,0.2c-0.4,0.2-0.8,0.3-1.3,0.5c-0.5,0.1-0.9,0.2-1.4,0.3c-0.4,0.1-0.9,0.2-1.3,0.2c-0.4,0.1-0.8,0.1-1.2,0.2
		c-0.2,0-0.5,0.1-0.8,0.1c-0.3,0-0.5,0.1-0.8,0.1c-0.3,0-0.5,0.1-0.7,0.1c-0.2,0-0.4,0.1-0.6,0.1c-0.2,0.7-0.4,1.5-0.5,2.1
		c-0.2,0.7-0.3,1.3-0.4,1.9c0,0.1,0,0.3-0.1,0.4s-0.1,0.4-0.1,0.6c0,0.2-0.1,0.5-0.1,0.7c0,0.2-0.1,0.5-0.1,0.7
		c0,0.2-0.1,0.4-0.1,0.6c0,0.2,0,0.3,0,0.4c0,0.3,0,0.5,0.1,0.7c0.1,0.1,0.2,0.2,0.3,0.3c0.2,0.1,0.3,0.3,0.4,0.4
		c0.1,0.1,0.2,0.3,0.2,0.5c0,0.2-0.1,0.3-0.2,0.5c-0.1,0.2-0.3,0.3-0.5,0.4c-0.2,0.1-0.4,0.2-0.6,0.3s-0.4,0.1-0.6,0.1
		c-0.3,0-0.6-0.1-0.9-0.2c-0.3-0.2-0.5-0.4-0.7-0.6s-0.3-0.5-0.4-0.9s-0.1-0.7-0.1-1c0-0.6,0-1.2,0.1-1.9c0.1-0.7,0.2-1.4,0.4-2.1
		c0.1-0.3,0.1-0.6,0.2-1c0.1-0.4,0.2-0.7,0.2-1.1c0.1-0.3,0.1-0.6,0.2-0.9c0.1-0.3,0.1-0.4,0.1-0.5c-0.2,0-0.5,0-0.8,0.1
		c-0.3,0-0.8,0.1-1.2,0.1c-0.4,0-0.7,0-1-0.1c-0.3,0-0.5-0.1-0.7-0.3c-0.2-0.1-0.3-0.3-0.4-0.5c-0.1-0.2-0.1-0.5-0.1-0.9
		c0-0.2,0.1-0.4,0.2-0.5c0.1-0.1,0.3-0.2,0.6-0.3c0.2-0.1,0.4-0.1,0.7-0.1c0.2,0,0.4,0,0.6,0c0.1,0,0.2,0,0.5,0c0.2,0,0.5,0,0.7-0.1
		c0.3,0,0.5,0,0.8-0.1c0.2,0,0.4,0,0.6,0c0,0,0.1-0.1,0.2-0.3c0.1-0.2,0.1-0.4,0.2-0.6s0.1-0.6,0.2-0.9c0.1-0.3,0.1-0.6,0.2-0.9
		c0.1-0.3,0.1-0.6,0.2-0.9c0.1-0.3,0.1-0.5,0.1-0.6c0.1-0.4,0.2-0.8,0.2-1.2c0.1-0.5,0.2-0.9,0.3-1.3c0.1-0.4,0.3-0.8,0.6-1
		c0.2-0.3,0.6-0.4,1-0.4c0.5,0,0.8,0.1,1.1,0.3c0.2,0.2,0.3,0.5,0.3,1c0,0.2,0,0.5-0.1,0.8c0,0.3-0.1,0.6-0.2,0.9
		c-0.2,0.7-0.4,1.3-0.5,1.9c-0.1,0.6-0.3,1.1-0.4,1.5c-0.1,0.4-0.2,0.9-0.3,1.4c0.4,0,0.7,0,1,0c0.3,0,0.7,0,1,0
		c0.3,0,0.7,0,1.1-0.1c0.4,0,0.8-0.1,1.2-0.1c0.5-0.1,0.9-0.1,1.3-0.2c0.4-0.1,0.7-0.1,0.9-0.2c0.3-0.1,0.5-0.1,0.7-0.1
		c0.2,0,0.4-0.1,0.7-0.1c0.1,0,0.2,0,0.3,0.1C146,114.2,146.1,114.3,146.1,114.6z"/>
	<path class="st0" d="M160.7,115.7c0,0.2,0,0.3-0.1,0.5s-0.1,0.4-0.2,0.5c-0.1,0.2-0.2,0.4-0.3,0.5s-0.2,0.3-0.3,0.5
		c-0.5,0.7-1.1,1.3-1.6,1.9c-0.6,0.6-1.2,1.2-1.8,1.7c-0.3,0.3-0.6,0.5-1,0.8c-0.3,0.2-0.7,0.4-1,0.6s-0.7,0.3-1,0.4
		s-0.6,0.1-0.9,0.1c-0.3,0-0.7-0.1-1-0.3c-0.3-0.2-0.6-0.5-0.8-0.8c-0.2-0.3-0.4-0.7-0.6-1c-0.1-0.4-0.2-0.7-0.2-1
		c-0.1,0.2-0.3,0.4-0.5,0.6s-0.4,0.5-0.6,0.8c-0.2,0.3-0.4,0.5-0.6,0.7c-0.2,0.2-0.3,0.4-0.4,0.5c-0.3,0.3-0.6,0.6-1,0.9
		s-0.7,0.6-1.1,0.9c-0.4,0.3-0.7,0.5-1,0.6c-0.3,0.2-0.6,0.2-0.7,0.2c-0.4,0-0.8-0.1-1.1-0.2c-0.4-0.1-0.7-0.3-1-0.5
		c-0.3-0.2-0.5-0.5-0.7-0.9c-0.2-0.3-0.3-0.7-0.3-1.2c0-0.4,0.1-0.9,0.2-1.4c0.1-0.5,0.3-1.1,0.5-1.6c0.2-0.6,0.5-1.1,0.7-1.7
		s0.6-1.1,0.9-1.7c0.3-0.5,0.7-1.1,1.1-1.5c0.4-0.5,0.8-0.9,1.2-1.3c0.7-0.7,1.4-1.2,2.2-1.5s1.6-0.5,2.5-0.5c0.2,0,0.4,0,0.6,0.1
		s0.3,0.1,0.4,0.2c0.1,0.1,0.2,0.2,0.3,0.3c0.1,0.1,0.1,0.3,0.2,0.4c0,0.1,0.1,0.1,0.2,0.3c0.1,0.1,0.2,0.2,0.3,0.4s0.2,0.3,0.3,0.4
		c0.1,0.1,0.1,0.3,0.1,0.4c0,0.2,0,0.4-0.1,0.6c-0.1,0.2-0.1,0.5-0.2,0.7c-0.1,0.3-0.1,0.6-0.2,1c-0.1,0.4-0.1,0.8-0.1,1.2
		c0,0.3,0,0.6,0.1,0.9c0,0.4,0.1,0.7,0.2,1c0.1,0.3,0.2,0.6,0.3,0.8c0.1,0.2,0.3,0.3,0.4,0.3c0.2,0,0.3,0,0.5-0.1
		c0.1,0,0.3-0.1,0.4-0.2c0.1-0.1,0.3-0.2,0.4-0.3c0.1-0.1,0.3-0.2,0.5-0.3c0.5-0.4,1.1-0.9,1.6-1.4c0.5-0.5,1.1-1,1.7-1.6
		c0.2-0.1,0.3-0.3,0.5-0.5c0.2-0.2,0.3-0.4,0.5-0.5c0.2-0.2,0.4-0.3,0.5-0.4c0.2-0.1,0.3-0.2,0.5-0.2
		C160.6,115.1,160.7,115.3,160.7,115.7z M150.1,114c0,0,0-0.1,0-0.2c0-0.1,0-0.1,0-0.2c-0.3,0-0.6,0.1-1,0.3
		c-0.3,0.2-0.7,0.5-1.1,0.9c-0.4,0.4-0.8,0.9-1.3,1.5c-0.5,0.6-0.9,1.4-1.4,2.2c-0.1,0.2-0.3,0.5-0.4,0.8c-0.1,0.3-0.3,0.6-0.4,0.9
		c-0.1,0.3-0.2,0.7-0.3,1c-0.1,0.4-0.1,0.7-0.1,1.1c0,0.1,0,0.3,0.1,0.3c0.1,0.1,0.2,0.1,0.3,0.1c0.2,0,0.5-0.1,0.8-0.3
		c0.3-0.2,0.7-0.5,1-0.9c0.4-0.4,0.8-0.8,1.1-1.3c0.4-0.5,0.8-1,1.1-1.5c0.3-0.5,0.6-1,0.9-1.6c0.3-0.5,0.4-1,0.5-1.4
		c0-0.1,0.1-0.3,0.1-0.5c0-0.2,0.1-0.3,0.1-0.5c0-0.2,0.1-0.3,0.1-0.5S150.1,114.1,150.1,114z"/>
	<path class="st0" d="M161.1,114.2c0.1,0,0.3,0,0.4,0.1c0.1,0,0.2,0.1,0.3,0.2c0.1,0.1,0.2,0.2,0.3,0.2c0.1,0.1,0.1,0.2,0.2,0.2
		c0.1,0.1,0.1,0.3,0.1,0.4c0,0.2,0,0.3,0,0.5c0,0.2,0,0.4,0,0.7s0,0.5-0.1,0.8c0,0.3-0.1,0.5-0.1,0.7c0,0.2-0.1,0.5-0.1,0.7
		s-0.1,0.5-0.1,0.8c0,0.3-0.1,0.6-0.1,1c0.2-0.4,0.3-0.9,0.5-1.3c0.2-0.4,0.4-0.9,0.6-1.3c0.2-0.4,0.4-0.9,0.7-1.3
		c0.3-0.4,0.5-0.8,0.9-1.2c0.2-0.2,0.5-0.5,0.8-0.7c0.3-0.2,0.6-0.4,1-0.6c0.4-0.2,0.7-0.3,1.1-0.4c0.4-0.1,0.7-0.1,1.1-0.1
		c0.3,0,0.5,0,0.8,0.1s0.5,0.2,0.8,0.3s0.4,0.3,0.6,0.5s0.3,0.4,0.3,0.6c0,0.1,0,0.2-0.1,0.4c-0.1,0.2-0.2,0.4-0.3,0.5
		c-0.1,0.2-0.2,0.4-0.3,0.5c-0.1,0.1-0.3,0.2-0.4,0.2c0,0-0.1,0-0.2,0c-0.1,0-0.3,0-0.4,0c-0.1,0-0.3,0-0.4,0c-0.1,0-0.2,0-0.3,0
		c-0.2,0-0.4,0-0.6,0.1c-0.2,0-0.4,0.1-0.6,0.2c-0.2,0.1-0.4,0.2-0.6,0.4c-0.2,0.2-0.4,0.4-0.6,0.6c-0.2,0.3-0.5,0.6-0.7,1
		c-0.3,0.4-0.5,0.8-0.8,1.3c-0.2,0.4-0.5,0.9-0.7,1.4c-0.2,0.5-0.4,0.9-0.6,1.4c-0.1,0.2-0.2,0.5-0.3,0.8c-0.1,0.3-0.2,0.6-0.3,0.9
		c-0.1,0.3-0.2,0.6-0.2,0.9c-0.1,0.3-0.1,0.6-0.2,0.9c0,0.1-0.1,0.2-0.2,0.3c-0.2,0.1-0.3,0.2-0.5,0.3s-0.4,0.2-0.6,0.2
		c-0.2,0.1-0.3,0.1-0.4,0.1c-0.3,0-0.6-0.1-0.8-0.3s-0.4-0.5-0.5-0.8c-0.1-0.3-0.2-0.7-0.2-1.1s-0.1-0.7-0.1-1c0-0.2,0-0.5,0-0.9
		c0-0.3,0-0.7,0-1.1c0-0.4,0-0.8,0.1-1.2c0-0.4,0-0.8,0.1-1.1c0-0.4,0-0.7,0-1c0-0.3,0-0.6,0-0.8c0-0.4,0-0.8,0-1.1s0-0.4,0-0.6
		c0-0.1,0-0.2,0-0.3c0,0,0-0.1,0-0.1c0,0,0-0.1,0-0.1c0,0,0-0.1,0-0.1c0-0.2,0.1-0.5,0.2-0.7c0.1-0.2,0.3-0.4,0.4-0.6
		c0.2-0.2,0.4-0.3,0.6-0.4C160.7,114.2,160.9,114.2,161.1,114.2z"/>
	<path class="st0" d="M190.2,124.3c0,0.2-0.1,0.4-0.4,0.6s-0.5,0.3-0.9,0.5c-0.3,0.1-0.7,0.2-1,0.3c-0.3,0.1-0.6,0.1-0.9,0.1
		c-0.8,0-1.6-0.1-2.2-0.3c-0.7-0.2-1.4-0.4-2.1-0.7c-0.7-0.3-1.4-0.6-2-1c-0.6-0.4-1.2-0.8-1.8-1.1c-0.2-0.1-0.4-0.3-0.6-0.4
		c-0.2-0.1-0.3-0.2-0.5-0.3s-0.3-0.2-0.5-0.3c-0.2-0.1-0.4-0.2-0.6-0.3c-0.4,0.3-0.7,0.6-0.9,0.9s-0.4,0.5-0.6,0.7
		c-0.1,0.2-0.3,0.5-0.3,0.7c-0.1,0.2-0.1,0.5-0.2,0.8c0,0.2-0.1,0.4-0.2,0.7c-0.1,0.2-0.2,0.5-0.3,0.7c-0.1,0.2-0.3,0.4-0.5,0.5
		c-0.2,0.1-0.5,0.2-0.8,0.2c-0.2,0-0.4,0-0.5,0c-0.1,0-0.2-0.1-0.3-0.2c-0.1-0.1-0.1-0.2-0.1-0.4c0-0.2,0-0.4,0-0.7
		c0-0.1,0-0.3,0.1-0.7c0-0.3,0.1-0.8,0.2-1.2c0.1-0.5,0.1-1,0.2-1.6c0.1-0.6,0.2-1.2,0.3-1.8c0.1-0.6,0.2-1.2,0.3-1.9
		c0.1-0.6,0.2-1.2,0.2-1.7c0.1-0.5,0.1-1,0.2-1.4c0.1-0.4,0.1-0.7,0.1-0.8c0-0.3,0.1-0.6,0.1-1c0-0.4,0.1-0.7,0.1-1.1
		c0-0.4,0.1-0.8,0.1-1.1c0-0.4,0.1-0.7,0.1-1.1c0.1-0.8,0.1-1.7,0.2-2.5c0-0.2,0.1-0.4,0.2-0.5c0.1-0.2,0.3-0.3,0.5-0.4
		c0.2-0.1,0.4-0.2,0.6-0.3c0.2-0.1,0.4-0.1,0.6-0.1c0.2,0,0.4,0,0.6,0.1c0.1,0.1,0.3,0.2,0.4,0.3c0.1,0.1,0.1,0.3,0.2,0.4
		s0.1,0.3,0.1,0.4c0,0.1,0,0.3-0.1,0.6s-0.1,0.6-0.1,1s-0.1,0.8-0.2,1.3c-0.1,0.5-0.2,0.9-0.2,1.4c-0.1,0.5-0.2,0.9-0.2,1.4
		c-0.1,0.5-0.1,0.9-0.2,1.3c-0.1,0.4-0.1,0.7-0.2,1c0,0.3-0.1,0.5-0.1,0.6c-0.1,0.5-0.2,1-0.3,1.5c-0.1,0.4-0.2,0.8-0.2,1.2
		c-0.1,0.3-0.1,0.6-0.2,0.9s-0.1,0.5-0.1,0.7c0.2-0.2,0.4-0.5,0.7-0.7s0.5-0.5,0.7-0.8c0.2-0.3,0.5-0.6,0.7-0.8
		c0.2-0.3,0.4-0.5,0.6-0.8c0.2-0.2,0.4-0.4,0.5-0.6c0.1-0.2,0.2-0.3,0.3-0.3c0.4-0.4,0.8-0.9,1.2-1.4c0.4-0.5,0.8-0.9,1.3-1.3
		c0.4-0.4,0.8-0.7,1.2-0.9c0.4-0.2,0.7-0.4,1-0.4c0.9,0,1.3,0.3,1.3,0.8c0,0.2,0,0.3-0.1,0.5c-0.1,0.2-0.2,0.4-0.3,0.6
		s-0.3,0.4-0.4,0.6s-0.3,0.3-0.4,0.5c-0.1,0.1-0.3,0.3-0.5,0.5c-0.2,0.2-0.4,0.4-0.7,0.7c-0.2,0.2-0.5,0.5-0.8,0.7s-0.5,0.5-0.8,0.7
		c-0.2,0.2-0.5,0.4-0.7,0.6s-0.4,0.4-0.5,0.5c-0.2,0.2-0.4,0.4-0.5,0.5c-0.1,0.1-0.2,0.2-0.3,0.3c0.8,0.5,1.6,0.9,2.4,1.4
		c0.8,0.5,1.6,0.9,2.4,1.3c0.8,0.4,1.5,0.7,2.3,1c0.8,0.3,1.5,0.5,2.2,0.6c0.3,0,0.5,0.1,0.7,0.1c0.2,0,0.4,0,0.6,0
		c0.3,0,0.6,0,0.7,0.1C190.2,124,190.2,124.1,190.2,124.3z"/>
	<path class="st0" d="M216.5,116.2c0,0.1,0,0.2-0.1,0.3s-0.1,0.3-0.3,0.5c-0.3,0.5-0.8,1.1-1.3,1.8c-0.5,0.6-1.1,1.3-1.7,1.9
		c-0.6,0.6-1.3,1.3-2,1.8c-0.7,0.6-1.4,1.1-2.1,1.6c-0.7,0.5-1.4,0.8-2.2,1.1c-0.7,0.3-1.4,0.4-2.1,0.4c-0.8,0-1.5-0.1-2.2-0.3
		s-1.1-0.6-1.5-1c-0.4-0.4-0.7-1-0.9-1.6c-0.2-0.6-0.3-1.3-0.3-2.1c0-0.6,0-1.2,0.1-1.9c0.1-0.7,0.3-1.4,0.5-2.1
		c0.2-0.7,0.6-1.4,1-2.1c0.4-0.7,1-1.4,1.6-2c0.5-0.5,1-0.9,1.6-1.2s1.1-0.4,1.7-0.4c0.1,0,0.2,0,0.4,0.1c0.1,0,0.3,0.1,0.4,0.2
		s0.3,0.2,0.4,0.3c0.1,0.1,0.3,0.2,0.3,0.3c0.3,0.4,0.5,0.7,0.6,1c0.1,0.3,0.2,0.7,0.2,1.1c0,0.6-0.1,1.2-0.3,1.7s-0.4,1-0.7,1.4
		c-0.3,0.4-0.7,0.9-1.1,1.3c-0.4,0.4-0.9,0.8-1.3,1.3c-0.3,0.3-0.7,0.6-1.1,0.9c-0.4,0.3-0.9,0.7-1.4,1c0.1,0.3,0.2,0.5,0.3,0.7
		c0.1,0.2,0.2,0.4,0.4,0.5c0.2,0.1,0.3,0.2,0.6,0.3c0.2,0.1,0.5,0.1,0.8,0.1c0.4,0,0.9-0.1,1.3-0.2c0.5-0.1,0.9-0.3,1.4-0.5
		c0.4-0.2,0.8-0.4,1.2-0.7c0.4-0.3,0.8-0.6,1.2-0.9c0.3-0.2,0.6-0.5,1-0.8c0.4-0.4,0.8-0.7,1.2-1.1c0.3-0.3,0.6-0.5,0.8-0.8
		c0.3-0.3,0.6-0.5,0.9-0.8l0.7-0.7c0.5-0.4,0.9-0.6,1.2-0.6c0.2,0,0.3,0,0.3,0.1C216.5,116,216.5,116.1,216.5,116.2z M206.3,114.7
		c0-0.4-0.1-0.7-0.2-0.8c-0.1-0.2-0.3-0.2-0.4-0.2c-0.1,0-0.3,0.1-0.5,0.2s-0.4,0.4-0.5,0.6c-0.2,0.3-0.4,0.6-0.6,0.9
		c-0.2,0.4-0.4,0.7-0.5,1.1c-0.2,0.4-0.3,0.8-0.4,1.2c-0.1,0.4-0.2,0.8-0.2,1.2c0.3-0.2,0.5-0.4,0.7-0.6c0.2-0.2,0.4-0.4,0.6-0.5
		c0.2-0.2,0.4-0.4,0.6-0.7c0.2-0.3,0.5-0.5,0.7-0.8c0.2-0.3,0.4-0.6,0.5-0.9C206.2,115.2,206.3,115,206.3,114.7z"/>
	<path class="st0" d="M237.2,116.6c0,0.2,0,0.3-0.1,0.5c-0.1,0.2-0.1,0.4-0.2,0.6c-0.1,0.2-0.2,0.4-0.3,0.5
		c-0.1,0.2-0.2,0.3-0.3,0.4c-0.3,0.4-0.6,0.7-0.9,1.1c-0.3,0.4-0.7,0.8-1.1,1.2c-0.4,0.4-0.8,0.8-1.2,1.1c-0.4,0.4-0.8,0.7-1.2,0.9
		c-0.3,0.2-0.6,0.4-0.9,0.6c-0.3,0.2-0.6,0.3-0.9,0.5c-0.3,0.1-0.6,0.3-1,0.3c-0.3,0.1-0.7,0.1-1.1,0.1c-0.7,0-1.2-0.1-1.6-0.4
		c-0.4-0.3-0.8-0.6-1.1-1.1c-0.3-0.4-0.5-0.9-0.6-1.5c-0.1-0.6-0.3-1.2-0.3-1.8c-0.1-0.8-0.2-1.5-0.4-2c-0.1-0.5-0.3-0.7-0.5-0.7
		c-0.2,0-0.3,0-0.5,0.1c-0.2,0.1-0.4,0.3-0.6,0.5c-0.3,0.3-0.6,0.7-0.9,1.2c-0.4,0.5-0.9,1.2-1.5,2.1c-0.2,0.3-0.5,0.6-0.8,1
		c-0.3,0.4-0.6,0.7-1,1.1c-0.3,0.3-0.7,0.6-1,0.9c-0.3,0.3-0.6,0.4-0.9,0.5c-1.1-0.2-1.7-1.3-1.7-3.2c0-0.5,0.1-1.2,0.2-2.1
		c0.1-0.4,0.1-0.8,0.2-1.3c0.1-0.5,0.1-0.9,0.3-1.4c0.1-0.5,0.2-0.9,0.4-1.4c0.1-0.4,0.3-0.9,0.5-1.2c0.1-0.2,0.2-0.4,0.4-0.5
		c0.1-0.1,0.3-0.2,0.4-0.3c0.1-0.1,0.3-0.1,0.4-0.1s0.3,0,0.4,0c0.1,0,0.3,0,0.4,0.1c0.1,0.1,0.2,0.2,0.3,0.3
		c0.1,0.1,0.2,0.3,0.2,0.4c0.1,0.2,0.1,0.4,0.1,0.6c0,0.2,0,0.4-0.1,0.6c0,0.2-0.1,0.4-0.1,0.6c-0.1,0.2-0.1,0.4-0.2,0.6
		c-0.1,0.2-0.1,0.5-0.2,0.8c0,0.2-0.1,0.4-0.2,0.7c-0.1,0.3-0.2,0.6-0.3,0.9c-0.1,0.3-0.2,0.6-0.2,0.9c-0.1,0.3-0.1,0.5-0.1,0.8
		c0.2-0.2,0.3-0.4,0.5-0.7c0.2-0.3,0.4-0.6,0.7-0.9c0.2-0.3,0.5-0.6,0.7-1s0.5-0.7,0.7-0.9c0.3-0.4,0.6-0.8,0.9-1.1
		c0.3-0.3,0.6-0.6,0.9-0.9c0.3-0.3,0.7-0.4,1.1-0.6c0.4-0.1,0.8-0.2,1.3-0.2c0.6,0,1,0.1,1.4,0.3c0.4,0.2,0.6,0.6,0.9,1
		c0.2,0.4,0.4,0.9,0.5,1.5c0.1,0.6,0.2,1.2,0.3,1.9c0,0.3,0.1,0.7,0.1,1.1c0.1,0.4,0.1,0.7,0.3,1c0.1,0.3,0.3,0.5,0.4,0.7
		c0.2,0.2,0.4,0.3,0.7,0.3c0.4,0,0.8-0.1,1.3-0.3c0.5-0.2,1-0.5,1.5-0.9s1.1-0.8,1.6-1.3s1.1-1,1.7-1.6c0.2-0.2,0.3-0.4,0.5-0.5
		c0.2-0.2,0.3-0.3,0.5-0.5c0.1-0.1,0.3-0.3,0.4-0.3s0.3-0.1,0.4-0.1c0.1,0,0.1,0,0.2,0c0.1,0,0.1,0,0.2,0.1c0.1,0,0.1,0.1,0.2,0.2
		C237.1,116.4,237.2,116.5,237.2,116.6z"/>
	<path class="st0" d="M249.4,114.7c0,0.2-0.1,0.4-0.3,0.6c-0.2,0.2-0.5,0.4-0.8,0.5s-0.7,0.3-1.1,0.4c-0.4,0.1-0.8,0.2-1.3,0.3
		c-0.4,0.1-0.8,0.2-1.2,0.3c-0.4,0.1-0.7,0.1-1,0.2c-1,0.1-1.8,0.2-2.5,0.3c-0.7,0.1-1.1,0.2-1.4,0.3c-0.2,0.7-0.3,1.3-0.5,2
		c-0.2,0.7-0.3,1.4-0.4,2c-0.1,0.6-0.2,1.2-0.3,1.6c-0.1,0.5-0.1,0.8-0.1,0.9c0,0.1,0,0.2,0,0.3c0,0.1,0,0.2,0,0.2
		c0,0.1,0,0.1,0.1,0.2c0,0.1,0,0.1,0.1,0.2c0,0.1,0.1,0.2,0.1,0.4c0,0.2,0.1,0.3,0.1,0.4c0,0.1,0.1,0.3,0.1,0.4c0,0.1,0,0.2,0,0.3
		c0,0.2,0,0.3-0.1,0.5c-0.1,0.2-0.2,0.4-0.3,0.6c-0.1,0.2-0.3,0.3-0.5,0.4c-0.2,0.1-0.4,0.2-0.6,0.2c-0.2,0-0.5-0.1-0.7-0.2
		c-0.2-0.1-0.4-0.3-0.5-0.5c-0.2-0.2-0.3-0.4-0.4-0.7c-0.1-0.3-0.2-0.5-0.3-0.8c-0.1-0.3-0.1-0.5-0.2-0.7c0-0.2-0.1-0.4-0.1-0.6
		c0-0.1,0-0.4,0-0.7c0-0.3,0.1-0.6,0.2-1c0.3-1,0.5-1.9,0.6-2.5c0.1-0.7,0.3-1.2,0.3-1.6c0.1-0.4,0.1-0.7,0.1-0.9c0-0.2,0-0.3,0-0.4
		c-0.1,0-0.3,0-0.5,0c-0.2,0-0.4,0-0.7,0.1c-0.2,0-0.4,0-0.6,0.1c-0.2,0-0.3,0-0.4,0c-0.5,0-0.9,0-1.2-0.1s-0.6-0.2-0.8-0.4
		c-0.2-0.2-0.3-0.4-0.4-0.8c-0.1-0.3-0.1-0.8-0.1-1.3c0.4,0,0.8,0,1.1-0.1c0.3,0,0.6-0.1,0.8-0.1c0.1,0,0.2,0,0.5,0
		c0.3,0,0.6,0,0.9-0.1c0.3,0,0.7-0.1,1-0.1c0.3,0,0.6-0.1,0.7-0.1c0-0.1,0.1-0.3,0.1-0.5s0.1-0.4,0.2-0.7c0.1-0.3,0.1-0.5,0.2-0.8
		s0.1-0.5,0.2-0.7c0-0.1,0.1-0.3,0.2-0.7c0.1-0.3,0.1-0.6,0.2-0.9s0.2-0.6,0.2-0.9c0.1-0.3,0.1-0.5,0.1-0.5c0.1-0.4,0.2-0.7,0.3-1
		c0.1-0.3,0.3-0.6,0.4-0.8c0.2-0.2,0.3-0.4,0.5-0.5c0.2-0.1,0.4-0.2,0.6-0.2c0.5,0,0.8,0.1,1,0.3c0.2,0.2,0.3,0.6,0.3,1.1
		c0,0.2,0,0.5-0.1,0.7s-0.1,0.6-0.2,0.9c-0.2,0.6-0.3,1.1-0.4,1.5c-0.1,0.4-0.2,0.8-0.2,1.1c-0.1,0.3-0.1,0.6-0.1,0.9
		c0,0.3-0.1,0.6-0.1,0.9c0,0,0,0.1,0,0.2c0,0.1,0,0.2,0,0.2c0.8,0,1.5,0,2.2-0.1c0.7-0.1,1.5-0.2,2.2-0.2c0.4,0,0.8-0.1,1.1-0.1
		c0.3-0.1,0.6-0.1,0.9-0.1s0.5-0.1,0.8-0.1c0.3,0,0.5,0,0.8,0c0.1,0,0.2,0,0.3,0c0.1,0,0.2,0.1,0.3,0.1c0.1,0.1,0.2,0.1,0.2,0.3
		C249.3,114.4,249.4,114.6,249.4,114.7z"/>
	<path class="st0" d="M273.5,115.1c0,0.2-0.1,0.5-0.3,0.8c-0.2,0.3-0.6,0.6-1,0.8c-0.4,0.3-0.9,0.5-1.5,0.7c-0.6,0.2-1.3,0.3-2,0.3
		c-0.1,0-0.3,0-0.5,0c-0.2,0-0.4,0-0.7-0.1c-0.2,0-0.5-0.1-0.8-0.2c-0.3-0.1-0.5-0.1-0.8-0.2c-0.1,0.2-0.3,0.4-0.4,0.7
		c-0.1,0.3-0.3,0.6-0.4,1c-0.1,0.4-0.3,0.8-0.4,1.2c-0.1,0.4-0.3,0.8-0.4,1.3c-0.1,0.4-0.2,0.8-0.3,1.2c-0.1,0.4-0.2,0.8-0.4,1.3
		c-0.1,0.4-0.3,0.8-0.5,1.2s-0.4,0.7-0.6,1c-0.2,0.3-0.5,0.5-0.8,0.7c-0.3,0.2-0.6,0.3-0.9,0.3c-0.4,0-0.8-0.1-1.1-0.3
		c-0.3-0.2-0.6-0.5-0.8-0.8c-0.2-0.3-0.5-0.7-0.6-1s-0.3-0.7-0.5-1c0-0.1-0.1-0.2-0.1-0.4c-0.1-0.2-0.2-0.5-0.2-0.8
		c-0.1-0.3-0.2-0.6-0.3-1c-0.1-0.4-0.2-0.7-0.3-1c-0.1-0.3-0.2-0.7-0.3-1c-0.1-0.3-0.1-0.6-0.2-0.8c-0.1,0.2-0.2,0.5-0.3,0.8
		c-0.1,0.3-0.2,0.6-0.3,0.9s-0.2,0.6-0.3,0.9c-0.1,0.3-0.2,0.6-0.3,0.8c-0.1,0.2-0.2,0.5-0.3,0.6c-0.1,0.2-0.1,0.3-0.1,0.3
		c-0.1,0.3-0.2,0.6-0.4,0.9c-0.1,0.3-0.3,0.6-0.5,1c-0.2,0.3-0.3,0.6-0.5,1s-0.4,0.6-0.6,0.8s-0.4,0.4-0.6,0.6
		c-0.2,0.1-0.4,0.2-0.6,0.2c-0.4,0-0.7-0.1-0.9-0.2c-0.3-0.2-0.5-0.4-0.7-0.6s-0.4-0.6-0.5-0.9c-0.1-0.3-0.3-0.7-0.4-1.1
		c-0.1-0.4-0.2-0.7-0.3-1.1c-0.1-0.4-0.2-0.7-0.4-1c-0.2-0.4-0.3-0.9-0.5-1.4c-0.2-0.6-0.3-1.2-0.5-1.8c-0.2-0.6-0.3-1.2-0.4-1.8
		c-0.1-0.6-0.2-1-0.2-1.4c0-0.4,0-0.7,0.1-1c0-0.3,0.1-0.5,0.3-0.7c0.1-0.2,0.3-0.3,0.5-0.4c0.2-0.1,0.5-0.1,0.9-0.1
		c0.2,0,0.3,0,0.5,0.1c0.1,0.1,0.3,0.2,0.4,0.3s0.2,0.3,0.3,0.5c0.1,0.2,0.2,0.4,0.2,0.6c0,0.9,0.1,1.7,0.2,2.4
		c0.1,0.8,0.3,1.5,0.4,2.2c0.1,0.7,0.3,1.2,0.4,1.7c0.1,0.4,0.2,0.8,0.3,1.1c0.1,0.3,0.2,0.5,0.2,0.6c0.1,0.1,0.1,0.2,0.1,0.3
		c0-0.1,0.1-0.1,0.1-0.2c0-0.1,0.1-0.2,0.2-0.4c0.1-0.1,0.1-0.3,0.3-0.5c0.1-0.2,0.2-0.5,0.4-0.8c0-0.1,0.1-0.2,0.2-0.5
		c0.1-0.3,0.3-0.6,0.4-0.9c0.2-0.3,0.3-0.7,0.5-1.1s0.4-0.8,0.5-1.1c0.2-0.3,0.3-0.6,0.4-0.9c0.1-0.2,0.2-0.4,0.2-0.4
		c0.2-0.3,0.3-0.6,0.4-0.9c0.1-0.3,0.3-0.6,0.4-0.8c0.1-0.2,0.3-0.4,0.5-0.6c0.2-0.1,0.5-0.2,0.8-0.2c0.4,0,0.6,0.1,0.8,0.3
		c0.2,0.2,0.3,0.5,0.3,0.9c0.1,1.1,0.3,2.1,0.5,3.1c0.2,1,0.5,1.8,0.7,2.6c0.2,0.8,0.5,1.3,0.7,1.8c0.2,0.4,0.4,0.7,0.5,0.7
		c0.1,0,0.2-0.2,0.4-0.5c0.1-0.3,0.3-0.7,0.4-1.2c0.1-0.5,0.3-1,0.4-1.6c0.1-0.6,0.3-1.1,0.5-1.6c0.1-0.2,0.1-0.5,0.2-0.8
		c0.1-0.3,0.2-0.7,0.3-1c0.1-0.4,0.3-0.7,0.4-1.1c0.2-0.4,0.3-0.7,0.6-1s0.5-0.5,0.7-0.7c0.3-0.2,0.6-0.3,0.9-0.3
		c0.2,0,0.4,0,0.5,0.1c0.1,0,0.3,0.1,0.4,0.1c0.1,0.1,0.2,0.1,0.3,0.2c0.1,0.1,0.2,0.2,0.3,0.4c0.1,0.1,0.2,0.2,0.4,0.2
		c0.2,0.1,0.4,0.1,0.6,0.2c0.2,0.1,0.5,0.1,0.7,0.2c0.2,0,0.4,0.1,0.6,0.1c0.6,0,1.2-0.1,1.7-0.2c0.5-0.1,1-0.3,1.4-0.5
		c0,0,0.1-0.1,0.3-0.1s0.3-0.1,0.4-0.1c0.1,0,0.2,0,0.3,0c0.1,0,0.1,0.1,0.2,0.1c0,0.1,0.1,0.1,0.1,0.2
		C273.5,114.8,273.5,114.9,273.5,115.1z"/>
	<path class="st0" d="M285.6,117.6c0,0.2-0.1,0.5-0.2,0.8c-0.2,0.3-0.4,0.7-0.6,1c-0.3,0.4-0.6,0.8-1,1.2c-0.4,0.4-0.8,0.9-1.2,1.3
		c-0.5,0.5-1,1-1.5,1.5s-1.1,0.9-1.7,1.4c-0.6,0.4-1.2,0.8-1.8,1c-0.6,0.2-1.1,0.4-1.7,0.4c-0.6,0-1.1-0.1-1.6-0.3
		c-0.5-0.2-0.8-0.5-1.2-0.8c-0.3-0.4-0.6-0.8-0.8-1.2c-0.2-0.5-0.4-0.9-0.5-1.5c-0.1-0.5-0.2-1-0.2-1.6s-0.1-1-0.1-1.5
		c0-0.2,0-0.5,0-0.8c0-0.4,0.1-0.8,0.1-1.2c0-0.4,0.1-0.8,0.2-1.2c0.1-0.4,0.1-0.7,0.2-0.9c0.1-0.4,0.4-0.8,0.9-1.2
		c0.5-0.4,1-0.6,1.5-0.6c0.6,0,0.9,0.3,0.9,1c0,0.3,0,0.7-0.1,1c-0.1,0.4-0.1,0.7-0.2,1.1c-0.1,0.6-0.2,1.2-0.2,1.7
		c0,0.5-0.1,1-0.1,1.4c0,0.4,0,0.9,0.1,1.3s0.1,0.8,0.2,1.1c0.1,0.3,0.2,0.6,0.4,0.8c0.2,0.2,0.3,0.3,0.5,0.3c0.3,0,0.5,0,0.8-0.1
		c0.3,0,0.6-0.2,1-0.4c0.8-0.4,1.6-1,2.4-1.7c0.3-0.2,0.6-0.5,1-0.9c0.4-0.3,0.8-0.7,1.1-1c0.4-0.4,0.7-0.7,1.1-1s0.6-0.6,0.8-0.9
		c0,0,0.1-0.1,0.1-0.2c0-0.1,0.1-0.1,0.2-0.2s0.1-0.1,0.2-0.2c0.1,0,0.1-0.1,0.2-0.1c0.1,0,0.2,0,0.3,0.1c0.1,0,0.1,0.2,0.2,0.4
		C285.5,117.3,285.6,117.5,285.6,117.6z M277.4,106.8c0,0.3,0,0.6-0.1,0.8c-0.1,0.3-0.2,0.5-0.4,0.7c-0.3,0.5-0.8,0.7-1.5,0.7
		c-0.2,0-0.5,0-0.8-0.1c-0.3,0-0.5-0.1-0.7-0.2c-0.2-0.1-0.4-0.2-0.5-0.3c-0.1-0.1-0.2-0.3-0.2-0.4c0-0.3,0.1-0.6,0.2-0.9
		c0.1-0.3,0.3-0.6,0.5-0.8c0.2-0.3,0.5-0.5,0.7-0.6c0.3-0.2,0.5-0.3,0.8-0.3c0.3,0,0.6,0,0.8,0.1c0.2,0,0.4,0.1,0.6,0.2
		c0.2,0.1,0.3,0.2,0.4,0.4C277.3,106.3,277.4,106.5,277.4,106.8z"/>
	<path class="st0" d="M300.2,114.3c0,0.1,0,0.3-0.1,0.6c-0.1,0.3-0.2,0.5-0.3,0.8c-0.1,0.3-0.3,0.6-0.5,0.9
		c-0.2,0.3-0.4,0.6-0.6,0.9c-0.6,0.8-1.2,1.5-1.7,2.2c-0.6,0.7-1.1,1.3-1.7,1.8c-0.6,0.5-1.2,1-1.8,1.5c-0.6,0.4-1.2,0.8-1.8,1.2
		c-0.7,0.4-1.4,0.7-2.2,0.9c-0.8,0.2-1.7,0.3-2.6,0.3c-0.5,0-1-0.1-1.4-0.2s-0.8-0.4-1.1-0.7c-0.3-0.3-0.6-0.7-0.7-1.3
		s-0.3-1.1-0.3-1.8c0-0.4,0.1-0.8,0.2-1.2c0.1-0.5,0.3-0.9,0.4-1.5c0.2-0.5,0.4-1,0.7-1.5c0.3-0.5,0.5-1,0.8-1.5
		c0.3-0.5,0.6-0.9,0.9-1.3c0.3-0.4,0.6-0.7,1-1c0.2-0.2,0.4-0.3,0.7-0.5c0.3-0.1,0.6-0.3,0.9-0.4c0.3-0.1,0.6-0.2,0.9-0.3
		c0.3-0.1,0.6-0.1,0.8-0.1c0.3,0,0.6,0.1,0.9,0.2s0.6,0.3,0.8,0.5c0.2,0.2,0.4,0.4,0.6,0.6c0.1,0.2,0.2,0.5,0.2,0.7
		c0,0.2,0,0.4-0.1,0.6c-0.1,0.2-0.2,0.4-0.3,0.6c-0.1,0.2-0.3,0.3-0.4,0.4c-0.2,0.1-0.3,0.2-0.5,0.2c-0.1,0-0.3-0.1-0.4-0.2
		c-0.1-0.1-0.3-0.3-0.4-0.5c-0.1-0.2-0.2-0.3-0.3-0.4c-0.1-0.1-0.2-0.2-0.3-0.2c-0.3,0-0.7,0.1-1,0.4c-0.3,0.3-0.6,0.6-0.9,1
		c-0.3,0.4-0.6,0.8-0.8,1.3c-0.3,0.5-0.5,1-0.7,1.5c-0.2,0.5-0.3,1-0.4,1.4c-0.1,0.4-0.2,0.8-0.2,1.1c0,0.3,0,0.5,0.2,0.7
		c0.1,0.2,0.2,0.4,0.4,0.5c0.2,0.1,0.3,0.2,0.5,0.3s0.4,0.1,0.6,0.1c0.3,0,0.6,0,0.9-0.1c0.3-0.1,0.7-0.2,1-0.3
		c0.4-0.1,0.7-0.3,1-0.4c0.3-0.2,0.6-0.3,0.9-0.5c0.7-0.4,1.3-1,2-1.5c0.7-0.6,1.3-1.2,1.9-1.8c0.6-0.6,1.2-1.3,1.7-2s1-1.3,1.3-1.9
		c0.1-0.2,0.2-0.3,0.4-0.4c0.2-0.1,0.3-0.1,0.5-0.1c0.2,0,0.3,0.1,0.5,0.2S300.2,114.1,300.2,114.3z"/>
	<path class="st0" d="M315.9,120.5c0,0.1,0,0.2-0.1,0.4s-0.2,0.3-0.3,0.5c-0.1,0.2-0.3,0.3-0.5,0.5c-0.2,0.2-0.4,0.4-0.7,0.5
		c-0.3,0.2-0.7,0.5-1.1,0.7c-0.4,0.2-0.7,0.4-1.2,0.6c-0.4,0.2-0.9,0.3-1.4,0.4c-0.5,0.1-1.1,0.2-1.7,0.2c-0.5,0-0.9-0.1-1.4-0.2
		c-0.4-0.1-0.8-0.3-1.2-0.4c-0.4-0.2-0.8-0.4-1.1-0.6c-0.4-0.2-0.7-0.4-1-0.6c-0.3-0.2-0.6-0.4-0.9-0.6c-0.3-0.2-0.6-0.3-0.8-0.5
		c-0.2,0.3-0.4,0.6-0.6,0.9c-0.2,0.3-0.4,0.7-0.6,1c-0.2,0.3-0.4,0.7-0.5,1c-0.2,0.3-0.3,0.6-0.4,0.9c-0.1,0.2-0.2,0.5-0.2,0.7
		c-0.1,0.2-0.2,0.4-0.2,0.5c-0.1,0.1-0.2,0.3-0.3,0.3s-0.2,0.1-0.4,0.1c-0.2,0-0.5,0-0.7-0.1c-0.2-0.1-0.4-0.2-0.6-0.4
		s-0.3-0.4-0.4-0.7c-0.1-0.3-0.1-0.6-0.1-1c0-0.5,0-1.1,0.1-1.8s0.2-1.4,0.3-2.2s0.3-1.5,0.5-2.3c0.2-0.8,0.3-1.6,0.5-2.3
		c0-0.1,0.1-0.3,0.1-0.7c0.1-0.4,0.2-0.8,0.3-1.3c0.1-0.5,0.2-1.1,0.3-1.7c0.1-0.6,0.2-1.2,0.3-1.7c0.1-0.6,0.2-1.1,0.3-1.5
		s0.1-0.8,0.2-1c0-0.1,0-0.3,0.1-0.5c0-0.2,0.1-0.4,0.3-0.7c0.1-0.2,0.4-0.4,0.6-0.6c0.3-0.2,0.6-0.2,1.1-0.2c0.2,0,0.3,0,0.4,0.1
		c0.1,0.1,0.2,0.2,0.3,0.3s0.2,0.3,0.2,0.5c0,0.2,0.1,0.4,0.1,0.6c0,0.1,0,0.2-0.1,0.5c0,0.3-0.1,0.6-0.2,0.9s-0.1,0.7-0.2,1.2
		c-0.1,0.4-0.2,0.8-0.3,1.2s-0.2,0.8-0.3,1.2c-0.1,0.4-0.2,0.7-0.3,1c-0.1,0.5-0.3,1.1-0.5,1.7c-0.2,0.6-0.3,1.3-0.5,1.9
		c-0.2,0.6-0.3,1.2-0.5,1.8c-0.1,0.6-0.3,1.1-0.4,1.5c0.1-0.2,0.3-0.4,0.5-0.7c0.2-0.3,0.4-0.6,0.6-0.9s0.4-0.6,0.6-0.8
		s0.3-0.5,0.5-0.6c0.5-0.6,1-1.3,1.6-1.9c0.5-0.6,1-1.2,1.5-1.7c0.5-0.5,0.9-0.9,1.3-1.2c0.4-0.3,0.7-0.5,1-0.5c0.1,0,0.2,0,0.4,0.1
		c0.1,0.1,0.3,0.1,0.4,0.2c0.1,0.1,0.3,0.2,0.4,0.4c0.1,0.1,0.2,0.3,0.2,0.4c0,0.2-0.1,0.4-0.2,0.6s-0.3,0.5-0.5,0.7
		c-0.2,0.2-0.4,0.5-0.7,0.7c-0.3,0.2-0.5,0.5-0.8,0.7c-0.3,0.3-0.6,0.6-0.9,0.9c-0.3,0.3-0.6,0.6-0.9,0.9c-0.3,0.3-0.5,0.6-0.8,0.8
		c-0.2,0.3-0.4,0.5-0.6,0.6c0.3,0.2,0.7,0.5,1.2,0.8s0.9,0.5,1.4,0.8c0.5,0.2,1,0.4,1.4,0.6s0.9,0.2,1.3,0.2c0.6,0,1.1,0,1.5-0.1
		c0.4-0.1,0.8-0.2,1.2-0.3c0.4-0.1,0.7-0.2,1-0.4c0.3-0.1,0.6-0.3,0.8-0.4c0.1-0.1,0.2-0.1,0.3-0.2c0.1-0.1,0.3-0.1,0.4-0.2
		c0.1-0.1,0.3-0.1,0.4-0.2c0.1,0,0.3-0.1,0.3-0.1c0.1,0,0.2,0.1,0.3,0.2C315.9,120.2,315.9,120.3,315.9,120.5z"/>
	<path class="st0" d="M331.9,114.1c0,0.2-0.1,0.5-0.3,1c-0.2,0.4-0.4,1-0.7,1.5c-0.3,0.6-0.7,1.2-1.1,1.8c-0.4,0.6-0.9,1.2-1.3,1.8
		c-0.5,0.6-1,1.1-1.7,1.7s-1.3,1-2,1.5c-0.7,0.4-1.5,0.8-2.2,1c-0.8,0.3-1.6,0.4-2.4,0.4c-0.9,0-1.7-0.1-2.3-0.4
		c-0.6-0.3-1.1-0.7-1.5-1.2c-0.4-0.5-0.7-1-0.9-1.6c-0.2-0.6-0.3-1.2-0.3-1.9c0-0.6,0.1-1.1,0.2-1.7c0.1-0.6,0.3-1.1,0.5-1.6
		c0.2-0.5,0.4-1.1,0.7-1.6s0.6-1,0.9-1.4c0.2-0.3,0.5-0.6,0.8-0.9c0.3-0.3,0.7-0.6,1.1-0.8c0.4-0.3,0.8-0.5,1.3-0.6
		c0.5-0.2,1-0.3,1.5-0.3c0.4,0,0.8,0.1,1.1,0.3c0.3,0.2,0.6,0.4,0.8,0.7c0.2,0.3,0.4,0.6,0.5,0.9c0.1,0.3,0.2,0.6,0.2,0.9
		c0,0.5-0.1,1-0.3,1.5c-0.2,0.5-0.5,1-1,1.5c-0.4,0.5-1,1.1-1.7,1.6c-0.7,0.6-1.6,1.2-2.6,1.8c-0.1,0-0.1,0.1-0.2,0.1
		c-0.1,0.1-0.2,0.1-0.3,0.2s-0.1,0.1-0.2,0.1c0,0-0.1,0.1-0.1,0.1c0,0.2,0.1,0.4,0.2,0.6c0.1,0.2,0.2,0.4,0.3,0.5
		c0.2,0.2,0.4,0.3,0.6,0.4c0.3,0.1,0.6,0.1,1.1,0.1c0.3,0,0.7,0,1.1-0.1c0.4-0.1,0.8-0.2,1.2-0.3c0.4-0.1,0.8-0.3,1.2-0.5
		c0.4-0.2,0.7-0.5,1.1-0.7c0.4-0.4,0.9-0.8,1.4-1.3c0.5-0.5,1-1,1.5-1.6c0.5-0.6,0.9-1.2,1.4-1.8c0.4-0.6,0.8-1.3,1.2-2
		c0.1-0.3,0.3-0.4,0.5-0.5s0.4-0.1,0.5-0.1c0.1,0,0.2,0.1,0.3,0.2C331.9,113.5,331.9,113.7,331.9,114.1z M322,114.3
		c0-0.3-0.1-0.6-0.2-0.7c-0.1-0.1-0.2-0.2-0.3-0.2c-0.2,0-0.5,0.1-0.7,0.2c-0.2,0.2-0.5,0.4-0.7,0.6c-0.2,0.3-0.4,0.6-0.6,0.9
		c-0.2,0.3-0.4,0.7-0.5,1.1c-0.2,0.4-0.3,0.7-0.4,1.1c-0.1,0.4-0.2,0.7-0.2,1c0.6-0.4,1.1-0.9,1.5-1.3c0.5-0.4,0.8-0.8,1.2-1.1
		c0.3-0.3,0.6-0.6,0.8-0.9C321.9,114.7,322,114.5,322,114.3z"/>
	<path class="st0" d="M342.4,117.4c0,0.1-0.1,0.4-0.3,0.7c-0.2,0.3-0.4,0.7-0.7,1.1s-0.7,0.9-1.1,1.4c-0.4,0.5-0.9,1-1.3,1.6
		c-0.5,0.5-1,1-1.5,1.5c-0.5,0.5-1.1,0.9-1.6,1.3c-0.5,0.4-1.1,0.7-1.6,0.9c-0.5,0.2-1,0.3-1.5,0.3c-0.7,0-1.3-0.1-1.8-0.4
		c-0.5-0.3-0.8-0.6-1.1-1c-0.3-0.4-0.4-0.9-0.5-1.4c-0.1-0.5-0.1-1.1-0.1-1.6c0-0.3,0-0.8,0.1-1.4c0.1-0.6,0.1-1.3,0.2-2.1
		s0.2-1.6,0.4-2.5c0.2-0.9,0.3-1.8,0.5-2.7c0.2-0.9,0.4-1.8,0.7-2.6c0.3-0.8,0.5-1.6,0.9-2.2c0.3-0.6,0.6-1.1,1-1.5
		c0.4-0.4,0.7-0.6,1.1-0.6c0.3,0,0.5,0.1,0.7,0.3c0.2,0.2,0.2,0.6,0.2,1.1c-0.1,0.4-0.3,0.8-0.4,1.2c-0.1,0.3-0.2,0.7-0.3,1.1
		c-0.1,0.4-0.2,0.8-0.4,1.1c-0.1,0.4-0.2,0.7-0.3,0.9c-0.1,0.3-0.1,0.4-0.2,0.5c-0.2,0.8-0.4,1.6-0.6,2.4c-0.2,0.8-0.3,1.6-0.5,2.3
		c-0.1,0.8-0.2,1.5-0.3,2.2c-0.1,0.7-0.1,1.4-0.1,2.1c0,0.3,0,0.6,0.1,0.9c0.1,0.2,0.2,0.4,0.3,0.6s0.2,0.3,0.4,0.3
		c0.2,0.1,0.3,0.1,0.5,0.1c0.3,0,0.6-0.1,1-0.2s0.8-0.4,1.2-0.7c0.4-0.3,0.8-0.6,1.2-1c0.4-0.4,0.8-0.7,1.3-1.2
		c0.4-0.4,0.8-0.8,1.2-1.3c0.4-0.4,0.8-0.8,1.1-1.3c0.1-0.1,0.2-0.2,0.3-0.4c0.1-0.1,0.3-0.2,0.4-0.3c0.1-0.1,0.3-0.2,0.4-0.2
		c0.1-0.1,0.3-0.1,0.4-0.1s0.2,0,0.3,0.1C342.3,117,342.4,117.2,342.4,117.4z"/>
	<path class="st0" d="M351.5,114.1c0,0.2-0.1,0.4-0.2,0.5c-0.1,0.1-0.3,0.3-0.5,0.3s-0.4,0.2-0.6,0.2c-0.2,0-0.4,0.1-0.6,0.1
		c-0.7,0-1.3,0.1-2,0.2c-0.7,0.1-1.3,0.1-1.8,0.2c-0.5,0.1-1,0.1-1.3,0.2c-0.3,0-0.5,0.1-0.6,0.1c-0.1,0.2-0.1,0.5-0.2,0.9
		c-0.1,0.4-0.2,0.8-0.3,1.2c-0.1,0.4-0.2,0.8-0.3,1.3c-0.1,0.4-0.2,0.9-0.3,1.2c-0.1,0.4-0.1,0.8-0.2,1.1c0,0.3-0.1,0.6-0.1,0.8
		c0,0.1,0,0.3,0,0.6c0,0.2,0.1,0.4,0.2,0.7c0.1,0.2,0.2,0.4,0.3,0.5c0.1,0.2,0.3,0.2,0.5,0.2c0.1,0,0.3,0,0.5-0.1
		c0.2-0.1,0.4-0.2,0.7-0.3c0.3-0.1,0.5-0.3,0.8-0.5c0.3-0.2,0.6-0.5,0.8-0.8c0.1-0.1,0.2-0.2,0.3-0.3s0.2-0.2,0.4-0.3
		c0.1-0.1,0.3-0.2,0.4-0.2c0.2-0.1,0.3-0.1,0.5-0.1c0.3,0,0.4,0.1,0.5,0.2s0.1,0.3,0.1,0.4c0,0.4-0.1,0.7-0.3,1s-0.5,0.6-0.8,1
		c-0.1,0.2-0.4,0.4-0.7,0.7c-0.3,0.3-0.7,0.6-1.1,0.8c-0.4,0.3-0.9,0.5-1.4,0.7c-0.5,0.2-1.1,0.3-1.6,0.3c-0.6,0-1-0.1-1.4-0.2
		c-0.4-0.1-0.7-0.3-0.9-0.6c-0.3-0.2-0.4-0.5-0.6-0.8c-0.1-0.3-0.2-0.6-0.3-0.9c-0.1-0.3-0.1-0.6-0.1-0.9c0-0.3,0-0.6,0-0.8
		c0-0.3,0-0.6,0.1-0.9c0.1-0.3,0.1-0.7,0.2-1.1c0.1-0.4,0.2-0.8,0.3-1.2c0.1-0.4,0.2-0.8,0.3-1.2c0.1-0.4,0.1-0.7,0.2-1
		c0.1-0.3,0.1-0.6,0.1-0.8c0-0.1,0-0.1,0-0.1c0,0,0-0.1-0.1-0.1c-0.1,0-0.1-0.1-0.3-0.1c-0.1,0-0.3,0-0.5,0c-0.2,0-0.5,0-0.7,0
		c-0.3,0-0.5-0.1-0.7-0.1c-0.2-0.1-0.4-0.2-0.5-0.4c-0.1-0.2-0.2-0.4-0.2-0.7c0-0.2,0-0.4,0.1-0.5c0.1-0.1,0.2-0.2,0.3-0.3
		c0.1-0.1,0.2-0.1,0.4-0.2c0.1,0,0.3-0.1,0.5-0.1l2.8-0.1c0.1-0.1,0.1-0.3,0.3-0.6c0.1-0.3,0.2-0.6,0.4-1c0.1-0.4,0.3-0.8,0.4-1.2
		c0.1-0.4,0.3-0.8,0.4-1.2c0.2-0.5,0.4-0.9,0.7-1.2s0.6-0.4,1.1-0.4c0.3,0,0.5,0,0.7,0.1c0.2,0.1,0.3,0.2,0.3,0.3s0.1,0.2,0.1,0.4
		c0,0.1,0,0.3,0,0.4c0,0,0,0.1-0.1,0.3c0,0.2-0.1,0.4-0.2,0.6c-0.1,0.2-0.2,0.5-0.3,0.8c-0.1,0.3-0.2,0.6-0.3,0.9
		c-0.1,0.3-0.2,0.6-0.3,0.8c-0.1,0.3-0.2,0.5-0.2,0.7c0.1,0,0.3,0,0.5-0.1c0.2,0,0.5-0.1,0.8-0.1c0.3,0,0.6-0.1,1-0.1
		c0.3,0,0.7-0.1,1-0.1c0.3,0,0.6-0.1,0.8-0.1c0.2,0,0.4,0,0.4,0c0.5,0,0.9,0,1.2,0.1c0.3,0,0.5,0.1,0.7,0.2s0.3,0.2,0.3,0.4
		S351.5,113.9,351.5,114.1z"/>
	<path class="st0" d="M354.9,123.2c0,0.2-0.1,0.5-0.2,1.1c0,0.3-0.3,0.6-0.8,1c-0.4,0.3-0.8,0.5-1.2,0.5c-1,0-1.5-0.5-1.5-1.6
		c0-0.2,0.1-0.4,0.2-0.6c0.1-0.3,0.2-0.5,0.4-0.7c0.2-0.2,0.4-0.4,0.6-0.6c0.2-0.2,0.5-0.2,0.7-0.2c0.1,0,0.3,0,0.5,0.1
		c0.2,0.1,0.4,0.2,0.6,0.3c0.2,0.1,0.3,0.2,0.5,0.4C354.8,123,354.9,123.1,354.9,123.2z M357.2,107.7c0,0.1,0,0.3-0.1,0.6
		c-0.1,0.3-0.1,0.7-0.2,1.1c-0.1,0.4-0.2,0.8-0.3,1.3c-0.1,0.5-0.2,0.9-0.3,1.4c-0.2,0.9-0.4,1.8-0.7,2.7c-0.2,0.9-0.4,1.8-0.6,2.7
		c0,0.2,0,0.4,0,0.6c0,0.2,0,0.3,0,0.5c0,0.2-0.1,0.3-0.1,0.5c-0.1,0.2-0.2,0.4-0.3,0.6c-0.5,0-0.9,0-1.2-0.1
		c-0.3-0.1-0.6-0.2-0.8-0.4c0-0.1,0-0.3,0-0.4c0-0.2,0-0.3,0-0.5c0-0.6,0-1.3,0.1-2.1c0.1-0.8,0.2-1.5,0.3-2.3
		c0.2-0.8,0.3-1.6,0.5-2.3c0.1-0.7,0.2-1.4,0.2-2.1c0-0.2,0-0.6,0.1-1c0-0.2,0.1-0.4,0.1-0.6s0.1-0.3,0.2-0.4
		c0.1-0.1,0.2-0.2,0.3-0.4c0.1-0.1,0.3-0.2,0.4-0.3s0.4-0.2,0.5-0.3c0.2-0.1,0.3-0.1,0.5-0.1c0.4,0,0.7,0.1,1,0.4
		c0.2,0.1,0.3,0.3,0.4,0.4C357.1,107.4,357.2,107.5,357.2,107.7z"/>
</g>
<path class="st1" d="M64.9,89.4H40.2c-1.3,0-1.9-0.6-1.9-1.9v-4.9c0-1.2,0.6-1.8,1.9-1.8h23.3c7.2,0,10.8-2.7,10.8-8v-2.6
	c0-4.9-2.4-8.3-7.1-10.1l-16.4-6.9c-4.7-1.9-8.1-4.2-10.1-6.9c-2-2.6-3-6.1-3-10.5c0-11.4,6.2-17,18.7-17h22.7
	c1.3,0,1.9,0.6,1.9,1.9v4.9c0,1.2-0.6,1.8-1.9,1.8H58.2c-3.3,0-5.8,0.7-7.6,2.1c-1.7,1.4-2.6,3-2.6,4.9v2.4c0,3.9,2.6,6.8,7.9,8.9
	l16.4,7.3c4.8,1.8,8.1,4.3,9.8,7.3c1.7,3,2.6,7.3,2.6,12.6C84.7,83.9,78.1,89.4,64.9,89.4z"/>
<g>
</g>
<g>
</g>
<g>
</g>
<g>
</g>
<g>
</g>
<g>
</g>
</svg>
