<?xml version="1.0" encoding="utf-8"?>
<!-- Generator: Adobe Illustrator 19.2.1, SVG Export Plug-In . SVG Version: 6.00 Build 0)  -->
<svg version="1.1" id="Ebene_1" xmlns="http://www.w3.org/2000/svg" xmlns:xlink="http://www.w3.org/1999/xlink" x="0px" y="0px"
	 viewBox="0 0 343.1 102.5" style="enable-background:new 0 0 343.1 102.5;" xml:space="preserve">
<style type="text/css">
	.st0{fill:#D51224;}
	.st1{fill:#FFFFFF;}
</style>
<path class="st0" d="M74.9,102.5H18.1C8.1,102.5,0,94.4,0,84.4V18.1C0,8.1,8.1,0,18.1,0h69.2c1.9,0,3.5,1.6,3.5,3.5v83.1
	C90.7,95.4,83.6,102.5,74.9,102.5z"/>
<path d="M323.3,95h-24.7c-1.3,0-1.9-0.6-1.9-1.9v-4.9c0-1.2,0.6-1.8,1.9-1.8h23.3c7.2,0,10.8-2.7,10.8-8v-2.6
	c0-4.9-2.4-8.3-7.1-10.1l-16.4-6.9c-4.7-1.9-8.1-4.2-10.1-6.9c-2-2.6-3-6.1-3-10.5c0-11.4,6.2-17,18.7-17h22.7
	c1.3,0,1.9,0.6,1.9,1.9v4.9c0,1.2-0.6,1.8-1.9,1.8h-20.9c-3.3,0-5.8,0.7-7.6,2.1c-1.7,1.4-2.6,3-2.6,4.9v2.4c0,3.9,2.6,6.8,7.9,8.9
	l16.4,7.3c4.8,1.8,8.1,4.3,9.8,7.3c1.7,3,2.6,7.3,2.6,12.6C343.1,89.5,336.5,95,323.3,95z"/>
<path d="M119.7,33H148c1.3,0,1.9-0.6,1.9-1.9v-5c0-1.2-0.6-1.8-1.9-1.8h-29.4c-6.4,0-11.4,1.8-15,5.4c-3.7,3.6-5.5,8.6-5.5,15.1
	v14.9v0v14.9c0,6.5,1.8,11.5,5.5,15.1c3.6,3.6,8.7,5.4,15,5.4H148c1.3,0,1.9-0.6,1.9-1.8v-5c0-1.3-0.6-1.9-1.9-1.9h-28.3
	c-7.8,0-11.6-4-11.6-12.1v-8.5c0-0.8,0.5-1.2,1.4-1.2h31.9h0.5h5.9c1.3,0,1.9-0.7,1.9-2.1v-2.8v0v-2.8c0-1.4-0.6-2.1-1.9-2.1h-5.9
	h-0.5h-31.9c-0.9,0-1.4-0.4-1.4-1.2v-8.5C108.1,37,112,33,119.7,33z"/>
<g>
	<path d="M195.4,58.7v-0.6l20.4-31.6c0.5-0.6,0.6-1.2,0.3-1.6c-0.2-0.4-0.7-0.6-1.5-0.6h-6.9c-1.7,0-2.8,0.6-3.3,1.8l-19.7,31
		c-0.6,1-0.6,2,0,2.9l21.3,33c0.8,1.3,2.1,1.9,3.9,1.9h6.5c0.7,0,1.2-0.2,1.5-0.6c0.3-0.4,0.2-0.9-0.1-1.6L195.4,58.7z"/>
	<path d="M175.9,24.4h-6.2c-1.3,0-1.9,0.6-1.9,1.9v24.2v1.2v41.4c0,1.3,0.6,1.9,1.9,1.9h6.2c1.3,0,1.9-0.6,1.9-1.9V51.7v-1.2V26.3
		C177.8,25,177.2,24.4,175.9,24.4z"/>
</g>
<path d="M278.3,24.4h-30.1c-6.4,0-11.4,1.8-15,5.4c-3.7,3.6-5.5,8.6-5.5,15.1v13.8h0V93c0,1.3,0.6,1.9,1.9,1.9h6.2
	c1.3,0,1.9-0.6,1.9-1.9V64.5h32.3v8.9c0,0.2,0,0.3,0,0.4v13.8h0v5.4c0,1.3,0.6,1.9,1.9,1.9h6.2c1.3,0,1.9-0.6,1.9-1.9V26.3
	C280.2,25,279.6,24.4,278.3,24.4z M237.8,54.7v-9.4c0-8,3.8-12.1,11.5-12.1h19.4c0.9,0,1.4,0.4,1.4,1.2v20.3H237.8z"/>
<path class="st1" d="M63.5,95H38.8c-1.3,0-1.9-0.6-1.9-1.9v-4.9c0-1.2,0.6-1.8,1.9-1.8h23.3c7.2,0,10.8-2.7,10.8-8v-2.6
	c0-4.9-2.4-8.3-7.1-10.1l-16.4-6.9c-4.7-1.9-8.1-4.2-10.1-6.9c-2-2.6-3-6.1-3-10.5c0-11.4,6.2-17,18.7-17h22.7
	c1.3,0,1.9,0.6,1.9,1.9v4.9c0,1.2-0.6,1.8-1.9,1.8H56.8c-3.3,0-5.8,0.7-7.6,2.1c-1.7,1.4-2.6,3-2.6,4.9v2.4c0,3.9,2.6,6.8,7.9,8.9
	L71,58.5c4.8,1.8,8.1,4.3,9.8,7.3c1.7,3,2.6,7.3,2.6,12.6C83.3,89.5,76.7,95,63.5,95z"/>
</svg>
